<svg xmlns="http://www.w3.org/2000/svg" xmlns:xlink="http://www.w3.org/1999/xlink" width="768" zoomAndPan="magnify" viewBox="0 0 576 195.000001" height="260" preserveAspectRatio="xMidYMid meet" version="1.0"><defs><g/><clipPath id="8b6b895031"><path d="M 12 0 L 574.53125 0 L 574.53125 174 L 12 174 Z M 12 0 " clip-rule="nonzero"/></clipPath><clipPath id="67f7ab76d4"><path d="M 397.066406 58.3125 L 412.535156 58.3125 L 412.535156 73.777344 L 397.066406 73.777344 Z M 397.066406 58.3125 " clip-rule="nonzero"/></clipPath><clipPath id="bcf5d3ea3e"><path d="M 404.800781 58.3125 C 400.53125 58.3125 397.066406 61.773438 397.066406 66.046875 C 397.066406 70.316406 400.53125 73.777344 404.800781 73.777344 C 409.074219 73.777344 412.535156 70.316406 412.535156 66.046875 C 412.535156 61.773438 409.074219 58.3125 404.800781 58.3125 Z M 404.800781 58.3125 " clip-rule="nonzero"/></clipPath><clipPath id="3b6bae2120"><path d="M 0.0664062 0.3125 L 15.535156 0.3125 L 15.535156 15.777344 L 0.0664062 15.777344 Z M 0.0664062 0.3125 " clip-rule="nonzero"/></clipPath><clipPath id="2b9e172eea"><path d="M 7.800781 0.3125 C 3.53125 0.3125 0.0664062 3.773438 0.0664062 8.046875 C 0.0664062 12.316406 3.53125 15.777344 7.800781 15.777344 C 12.074219 15.777344 15.535156 12.316406 15.535156 8.046875 C 15.535156 3.773438 12.074219 0.3125 7.800781 0.3125 Z M 7.800781 0.3125 " clip-rule="nonzero"/></clipPath><clipPath id="c4d7ca788c"><rect x="0" width="16" y="0" height="16"/></clipPath><clipPath id="c74f4994f5"><rect x="0" width="393" y="0" height="113"/></clipPath><clipPath id="714b6fc212"><path d="M 375 135 L 528 135 L 528 173.828125 L 375 173.828125 Z M 375 135 " clip-rule="nonzero"/></clipPath><clipPath id="bb9fe069f0"><rect x="0" width="153" y="0" height="39"/></clipPath><clipPath id="5c0318392a"><path d="M 34 50.144531 L 90 50.144531 L 90 85 L 34 85 Z M 34 50.144531 " clip-rule="nonzero"/></clipPath><clipPath id="1199be96f4"><path d="M 79 83 L 113.222656 83 L 113.222656 140 L 79 140 Z M 79 83 " clip-rule="nonzero"/></clipPath><clipPath id="f45a912b2d"><path d="M 0.328125 73 L 35 73 L 35 129 L 0.328125 129 Z M 0.328125 73 " clip-rule="nonzero"/></clipPath><clipPath id="a2aa9e9d54"><path d="M 21 50.144531 L 53 50.144531 L 53 107 L 21 107 Z M 21 50.144531 " clip-rule="nonzero"/></clipPath><clipPath id="7bbebab23d"><path d="M 56 70 L 113.222656 70 L 113.222656 102 L 56 102 Z M 56 70 " clip-rule="nonzero"/></clipPath><clipPath id="5dca984f83"><path d="M 0.328125 111 L 57 111 L 57 143 L 0.328125 143 Z M 0.328125 111 " clip-rule="nonzero"/></clipPath><clipPath id="d619d2bde9"><rect x="0" width="40" y="0" height="71"/></clipPath><clipPath id="0ed192ede6"><rect x="0" width="89" y="0" height="134"/></clipPath><clipPath id="f198918e03"><path d="M 477 0 L 562.53125 0 L 562.53125 141 L 477 141 Z M 477 0 " clip-rule="nonzero"/></clipPath><clipPath id="6d9782ab4c"><rect x="0" width="86" y="0" height="141"/></clipPath><clipPath id="7b20ed56ed"><rect x="0" width="563" y="0" height="174"/></clipPath></defs><g clip-path="url(#8b6b895031)"><g transform="matrix(1, 0, 0, 1, 12, 0.000000000000040532)"><g clip-path="url(#7b20ed56ed)"><g clip-path="url(#67f7ab76d4)"><g clip-path="url(#bcf5d3ea3e)"><g transform="matrix(1, 0, 0, 1, 397, 58)"><g clip-path="url(#c4d7ca788c)"><g clip-path="url(#3b6bae2120)"><g clip-path="url(#2b9e172eea)"><path fill="#000000" d="M 0.0664062 0.3125 L 15.535156 0.3125 L 15.535156 15.777344 L 0.0664062 15.777344 Z M 0.0664062 0.3125 " fill-opacity="1" fill-rule="nonzero"/></g></g></g></g></g></g><g transform="matrix(1, 0, 0, 1, 136, 50)"><g clip-path="url(#c74f4994f5)"><g fill="#000000" fill-opacity="1"><g transform="translate(0.599793, 84.100621)"><g><path d="M 44.828125 -39.40625 C 43.535156 -41.78125 41.757812 -43.585938 39.5 -44.828125 C 37.238281 -46.066406 34.597656 -46.6875 31.578125 -46.6875 C 28.242188 -46.6875 25.28125 -45.929688 22.6875 -44.421875 C 20.101562 -42.910156 18.082031 -40.753906 16.625 -37.953125 C 15.175781 -35.160156 14.453125 -31.929688 14.453125 -28.265625 C 14.453125 -24.492188 15.191406 -21.207031 16.671875 -18.40625 C 18.160156 -15.613281 20.222656 -13.460938 22.859375 -11.953125 C 25.492188 -10.441406 28.5625 -9.6875 32.0625 -9.6875 C 36.375 -9.6875 39.898438 -10.832031 42.640625 -13.125 C 45.390625 -15.414062 47.195312 -18.601562 48.0625 -22.6875 L 28.671875 -22.6875 L 28.671875 -31.34375 L 59.203125 -31.34375 L 59.203125 -21.484375 C 58.453125 -17.554688 56.835938 -13.921875 54.359375 -10.578125 C 51.878906 -7.242188 48.6875 -4.566406 44.78125 -2.546875 C 40.875 -0.523438 36.5 0.484375 31.65625 0.484375 C 26.21875 0.484375 21.304688 -0.738281 16.921875 -3.1875 C 12.535156 -5.632812 9.085938 -9.039062 6.578125 -13.40625 C 4.078125 -17.769531 2.828125 -22.722656 2.828125 -28.265625 C 2.828125 -33.816406 4.078125 -38.785156 6.578125 -43.171875 C 9.085938 -47.554688 12.535156 -50.972656 16.921875 -53.421875 C 21.304688 -55.867188 26.191406 -57.09375 31.578125 -57.09375 C 37.929688 -57.09375 43.445312 -55.546875 48.125 -52.453125 C 52.8125 -49.359375 56.046875 -45.007812 57.828125 -39.40625 Z M 44.828125 -39.40625 "/></g></g></g><g fill="#000000" fill-opacity="1"><g transform="translate(62.62243, 84.100621)"><g><path d="M 16.875 -8.96875 L 35.453125 -8.96875 L 35.453125 0 L 5.578125 0 L 5.578125 -56.375 L 16.875 -56.375 Z M 16.875 -8.96875 "/></g></g></g><g fill="#000000" fill-opacity="1"><g transform="translate(99.690643, 84.100621)"><g><path d="M 50.390625 -56.375 L 31.34375 -19.625 L 31.34375 0 L 20.03125 0 L 20.03125 -19.625 L 0.890625 -56.375 L 13.65625 -56.375 L 25.765625 -30.609375 L 37.796875 -56.375 Z M 50.390625 -56.375 "/></g></g></g><g fill="#000000" fill-opacity="1"><g transform="translate(151.053139, 84.100621)"><g><path d="M 46.6875 -38.921875 C 46.6875 -35.910156 45.972656 -33.082031 44.546875 -30.4375 C 43.117188 -27.800781 40.882812 -25.675781 37.84375 -24.0625 C 34.800781 -22.445312 30.960938 -21.640625 26.328125 -21.640625 L 16.875 -21.640625 L 16.875 0 L 5.578125 0 L 5.578125 -56.375 L 26.328125 -56.375 C 30.691406 -56.375 34.40625 -55.617188 37.46875 -54.109375 C 40.539062 -52.609375 42.84375 -50.535156 44.375 -47.890625 C 45.914062 -45.253906 46.6875 -42.265625 46.6875 -38.921875 Z M 25.84375 -30.765625 C 28.96875 -30.765625 31.28125 -31.476562 32.78125 -32.90625 C 34.289062 -34.332031 35.046875 -36.335938 35.046875 -38.921875 C 35.046875 -44.421875 31.976562 -47.171875 25.84375 -47.171875 L 16.875 -47.171875 L 16.875 -30.765625 Z M 25.84375 -30.765625 "/></g></g></g><g fill="#000000" fill-opacity="1"><g transform="translate(200.154394, 84.100621)"><g><path d="M 52.34375 -56.375 L 52.34375 0 L 41.03125 0 L 41.03125 -23.984375 L 16.875 -23.984375 L 16.875 0 L 5.578125 0 L 5.578125 -56.375 L 16.875 -56.375 L 16.875 -33.1875 L 41.03125 -33.1875 L 41.03125 -56.375 Z M 52.34375 -56.375 "/></g></g></g><g fill="#000000" fill-opacity="1"><g transform="translate(258.058356, 84.100621)"><g><path d="M 16.875 -56.375 L 16.875 0 L 5.578125 0 L 5.578125 -56.375 Z M 16.875 -56.375 "/></g></g></g><g fill="#000000" fill-opacity="1"><g transform="translate(280.509252, 84.100621)"><g><path d="M 39.328125 0 L 27.140625 -18.984375 L 16.078125 0 L 3.3125 0 L 21.078125 -28.421875 L 3.0625 -56.375 L 16.078125 -56.375 L 28.265625 -37.46875 L 39.25 -56.375 L 52.015625 -56.375 L 34.328125 -28.03125 L 52.34375 0 Z M 39.328125 0 "/></g></g></g><g fill="#000000" fill-opacity="1"><g transform="translate(335.909699, 84.100621)"><g><path d="M 39.328125 0 L 27.140625 -18.984375 L 16.078125 0 L 3.3125 0 L 21.078125 -28.421875 L 3.0625 -56.375 L 16.078125 -56.375 L 28.265625 -37.46875 L 39.25 -56.375 L 52.015625 -56.375 L 34.328125 -28.03125 L 52.34375 0 Z M 39.328125 0 "/></g></g></g></g></g><g clip-path="url(#714b6fc212)"><g transform="matrix(1, 0, 0, 1, 375, 135)"><g clip-path="url(#bb9fe069f0)"><g fill="#000000" fill-opacity="1"><g transform="translate(0.958226, 28.643582)"><g><path d="M 8.484375 0.1875 C 7.148438 0.1875 5.945312 -0.0351562 4.875 -0.484375 C 3.8125 -0.941406 2.96875 -1.597656 2.34375 -2.453125 C 1.726562 -3.316406 1.410156 -4.332031 1.390625 -5.5 L 5.5 -5.5 C 5.550781 -4.71875 5.828125 -4.097656 6.328125 -3.640625 C 6.828125 -3.179688 7.515625 -2.953125 8.390625 -2.953125 C 9.285156 -2.953125 9.988281 -3.164062 10.5 -3.59375 C 11.007812 -4.019531 11.265625 -4.582031 11.265625 -5.28125 C 11.265625 -5.84375 11.09375 -6.304688 10.75 -6.671875 C 10.40625 -7.035156 9.972656 -7.320312 9.453125 -7.53125 C 8.929688 -7.738281 8.210938 -7.972656 7.296875 -8.234375 C 6.054688 -8.597656 5.050781 -8.957031 4.28125 -9.3125 C 3.507812 -9.664062 2.84375 -10.203125 2.28125 -10.921875 C 1.726562 -11.640625 1.453125 -12.601562 1.453125 -13.8125 C 1.453125 -14.9375 1.734375 -15.914062 2.296875 -16.75 C 2.859375 -17.59375 3.648438 -18.238281 4.671875 -18.6875 C 5.691406 -19.132812 6.859375 -19.359375 8.171875 -19.359375 C 10.140625 -19.359375 11.738281 -18.878906 12.96875 -17.921875 C 14.207031 -16.960938 14.890625 -15.628906 15.015625 -13.921875 L 10.796875 -13.921875 C 10.765625 -14.578125 10.488281 -15.117188 9.96875 -15.546875 C 9.445312 -15.972656 8.757812 -16.1875 7.90625 -16.1875 C 7.15625 -16.1875 6.554688 -15.992188 6.109375 -15.609375 C 5.660156 -15.234375 5.4375 -14.679688 5.4375 -13.953125 C 5.4375 -13.441406 5.601562 -13.015625 5.9375 -12.671875 C 6.28125 -12.335938 6.703125 -12.066406 7.203125 -11.859375 C 7.703125 -11.648438 8.410156 -11.40625 9.328125 -11.125 C 10.566406 -10.757812 11.578125 -10.394531 12.359375 -10.03125 C 13.140625 -9.664062 13.8125 -9.117188 14.375 -8.390625 C 14.945312 -7.660156 15.234375 -6.707031 15.234375 -5.53125 C 15.234375 -4.507812 14.96875 -3.5625 14.4375 -2.6875 C 13.90625 -1.8125 13.128906 -1.113281 12.109375 -0.59375 C 11.085938 -0.0703125 9.878906 0.1875 8.484375 0.1875 Z M 8.484375 0.1875 "/></g></g></g><g fill="#000000" fill-opacity="1"><g transform="translate(17.613281, 28.643582)"><g><path d="M 10.75 0.1875 C 8.957031 0.1875 7.3125 -0.226562 5.8125 -1.0625 C 4.320312 -1.90625 3.140625 -3.066406 2.265625 -4.546875 C 1.390625 -6.035156 0.953125 -7.71875 0.953125 -9.59375 C 0.953125 -11.457031 1.390625 -13.128906 2.265625 -14.609375 C 3.140625 -16.097656 4.320312 -17.257812 5.8125 -18.09375 C 7.3125 -18.9375 8.957031 -19.359375 10.75 -19.359375 C 12.550781 -19.359375 14.191406 -18.9375 15.671875 -18.09375 C 17.160156 -17.257812 18.335938 -16.097656 19.203125 -14.609375 C 20.078125 -13.128906 20.515625 -11.457031 20.515625 -9.59375 C 20.515625 -7.71875 20.078125 -6.035156 19.203125 -4.546875 C 18.335938 -3.066406 17.15625 -1.90625 15.65625 -1.0625 C 14.164062 -0.226562 12.53125 0.1875 10.75 0.1875 Z M 10.75 -3.234375 C 11.894531 -3.234375 12.90625 -3.488281 13.78125 -4 C 14.65625 -4.519531 15.335938 -5.265625 15.828125 -6.234375 C 16.328125 -7.203125 16.578125 -8.320312 16.578125 -9.59375 C 16.578125 -10.875 16.328125 -11.992188 15.828125 -12.953125 C 15.335938 -13.910156 14.65625 -14.644531 13.78125 -15.15625 C 12.90625 -15.664062 11.894531 -15.921875 10.75 -15.921875 C 9.601562 -15.921875 8.585938 -15.664062 7.703125 -15.15625 C 6.816406 -14.644531 6.125 -13.910156 5.625 -12.953125 C 5.132812 -11.992188 4.890625 -10.875 4.890625 -9.59375 C 4.890625 -8.320312 5.132812 -7.203125 5.625 -6.234375 C 6.125 -5.265625 6.816406 -4.519531 7.703125 -4 C 8.585938 -3.488281 9.601562 -3.234375 10.75 -3.234375 Z M 10.75 -3.234375 "/></g></g></g><g fill="#000000" fill-opacity="1"><g transform="translate(39.081625, 28.643582)"><g><path d="M 5.71875 -3.03125 L 12 -3.03125 L 12 0 L 1.890625 0 L 1.890625 -19.09375 L 5.71875 -19.09375 Z M 5.71875 -3.03125 "/></g></g></g><g fill="#000000" fill-opacity="1"><g transform="translate(51.63445, 28.643582)"><g><path d="M 5.65625 -19.09375 L 5.65625 -7.28125 C 5.65625 -5.976562 5.992188 -4.984375 6.671875 -4.296875 C 7.347656 -3.617188 8.296875 -3.28125 9.515625 -3.28125 C 10.753906 -3.28125 11.710938 -3.617188 12.390625 -4.296875 C 13.066406 -4.984375 13.40625 -5.976562 13.40625 -7.28125 L 13.40625 -19.09375 L 17.25 -19.09375 L 17.25 -7.296875 C 17.25 -5.679688 16.898438 -4.3125 16.203125 -3.1875 C 15.503906 -2.0625 14.566406 -1.21875 13.390625 -0.65625 C 12.210938 -0.09375 10.90625 0.1875 9.46875 0.1875 C 8.039062 0.1875 6.75 -0.09375 5.59375 -0.65625 C 4.4375 -1.21875 3.519531 -2.0625 2.84375 -3.1875 C 2.164062 -4.3125 1.828125 -5.679688 1.828125 -7.296875 L 1.828125 -19.09375 Z M 5.65625 -19.09375 "/></g></g></g><g fill="#000000" fill-opacity="1"><g transform="translate(70.696144, 28.643582)"><g><path d="M 14.875 -19.09375 L 14.875 -16 L 9.796875 -16 L 9.796875 0 L 5.96875 0 L 5.96875 -16 L 0.875 -16 L 0.875 -19.09375 Z M 14.875 -19.09375 "/></g></g></g><g fill="#000000" fill-opacity="1"><g transform="translate(86.476057, 28.643582)"><g><path d="M 5.71875 -19.09375 L 5.71875 0 L 1.890625 0 L 1.890625 -19.09375 Z M 5.71875 -19.09375 "/></g></g></g><g fill="#000000" fill-opacity="1"><g transform="translate(94.078856, 28.643582)"><g><path d="M 10.75 0.1875 C 8.957031 0.1875 7.3125 -0.226562 5.8125 -1.0625 C 4.320312 -1.90625 3.140625 -3.066406 2.265625 -4.546875 C 1.390625 -6.035156 0.953125 -7.71875 0.953125 -9.59375 C 0.953125 -11.457031 1.390625 -13.128906 2.265625 -14.609375 C 3.140625 -16.097656 4.320312 -17.257812 5.8125 -18.09375 C 7.3125 -18.9375 8.957031 -19.359375 10.75 -19.359375 C 12.550781 -19.359375 14.191406 -18.9375 15.671875 -18.09375 C 17.160156 -17.257812 18.335938 -16.097656 19.203125 -14.609375 C 20.078125 -13.128906 20.515625 -11.457031 20.515625 -9.59375 C 20.515625 -7.71875 20.078125 -6.035156 19.203125 -4.546875 C 18.335938 -3.066406 17.15625 -1.90625 15.65625 -1.0625 C 14.164062 -0.226562 12.53125 0.1875 10.75 0.1875 Z M 10.75 -3.234375 C 11.894531 -3.234375 12.90625 -3.488281 13.78125 -4 C 14.65625 -4.519531 15.335938 -5.265625 15.828125 -6.234375 C 16.328125 -7.203125 16.578125 -8.320312 16.578125 -9.59375 C 16.578125 -10.875 16.328125 -11.992188 15.828125 -12.953125 C 15.335938 -13.910156 14.65625 -14.644531 13.78125 -15.15625 C 12.90625 -15.664062 11.894531 -15.921875 10.75 -15.921875 C 9.601562 -15.921875 8.585938 -15.664062 7.703125 -15.15625 C 6.816406 -14.644531 6.125 -13.910156 5.625 -12.953125 C 5.132812 -11.992188 4.890625 -10.875 4.890625 -9.59375 C 4.890625 -8.320312 5.132812 -7.203125 5.625 -6.234375 C 6.125 -5.265625 6.816406 -4.519531 7.703125 -4 C 8.585938 -3.488281 9.601562 -3.234375 10.75 -3.234375 Z M 10.75 -3.234375 "/></g></g></g><g fill="#000000" fill-opacity="1"><g transform="translate(115.547201, 28.643582)"><g><path d="M 18.21875 0 L 14.390625 0 L 5.71875 -13.09375 L 5.71875 0 L 1.890625 0 L 1.890625 -19.109375 L 5.71875 -19.109375 L 14.390625 -5.984375 L 14.390625 -19.109375 L 18.21875 -19.109375 Z M 18.21875 0 "/></g></g></g><g fill="#000000" fill-opacity="1"><g transform="translate(135.648131, 28.643582)"><g><path d="M 8.484375 0.1875 C 7.148438 0.1875 5.945312 -0.0351562 4.875 -0.484375 C 3.8125 -0.941406 2.96875 -1.597656 2.34375 -2.453125 C 1.726562 -3.316406 1.410156 -4.332031 1.390625 -5.5 L 5.5 -5.5 C 5.550781 -4.71875 5.828125 -4.097656 6.328125 -3.640625 C 6.828125 -3.179688 7.515625 -2.953125 8.390625 -2.953125 C 9.285156 -2.953125 9.988281 -3.164062 10.5 -3.59375 C 11.007812 -4.019531 11.265625 -4.582031 11.265625 -5.28125 C 11.265625 -5.84375 11.09375 -6.304688 10.75 -6.671875 C 10.40625 -7.035156 9.972656 -7.320312 9.453125 -7.53125 C 8.929688 -7.738281 8.210938 -7.972656 7.296875 -8.234375 C 6.054688 -8.597656 5.050781 -8.957031 4.28125 -9.3125 C 3.507812 -9.664062 2.84375 -10.203125 2.28125 -10.921875 C 1.726562 -11.640625 1.453125 -12.601562 1.453125 -13.8125 C 1.453125 -14.9375 1.734375 -15.914062 2.296875 -16.75 C 2.859375 -17.59375 3.648438 -18.238281 4.671875 -18.6875 C 5.691406 -19.132812 6.859375 -19.359375 8.171875 -19.359375 C 10.140625 -19.359375 11.738281 -18.878906 12.96875 -17.921875 C 14.207031 -16.960938 14.890625 -15.628906 15.015625 -13.921875 L 10.796875 -13.921875 C 10.765625 -14.578125 10.488281 -15.117188 9.96875 -15.546875 C 9.445312 -15.972656 8.757812 -16.1875 7.90625 -16.1875 C 7.15625 -16.1875 6.554688 -15.992188 6.109375 -15.609375 C 5.660156 -15.234375 5.4375 -14.679688 5.4375 -13.953125 C 5.4375 -13.441406 5.601562 -13.015625 5.9375 -12.671875 C 6.28125 -12.335938 6.703125 -12.066406 7.203125 -11.859375 C 7.703125 -11.648438 8.410156 -11.40625 9.328125 -11.125 C 10.566406 -10.757812 11.578125 -10.394531 12.359375 -10.03125 C 13.140625 -9.664062 13.8125 -9.117188 14.375 -8.390625 C 14.945312 -7.660156 15.234375 -6.707031 15.234375 -5.53125 C 15.234375 -4.507812 14.96875 -3.5625 14.4375 -2.6875 C 13.90625 -1.8125 13.128906 -1.113281 12.109375 -0.59375 C 11.085938 -0.0703125 9.878906 0.1875 8.484375 0.1875 Z M 8.484375 0.1875 "/></g></g></g></g></g></g><g clip-path="url(#5c0318392a)"><path fill="#000000" d="M 89.550781 67.277344 C 85.691406 66.527344 81.757812 66.132812 77.820312 66.132812 C 70.417969 66.132812 63.015625 67.457031 56.003906 70.136719 L 55.96875 70.136719 L 55.828125 70.210938 C 54.859375 70.566406 53.929688 70.960938 53 71.390625 L 52.75 71.496094 C 51.785156 71.925781 50.855469 72.390625 49.925781 72.855469 L 49.675781 73 C 48.78125 73.464844 47.886719 73.964844 46.992188 74.464844 C 46.851562 74.574219 46.707031 74.644531 46.601562 74.714844 C 45.8125 75.179688 45.027344 75.679688 44.273438 76.183594 C 44.203125 76.253906 44.058594 76.289062 43.882812 76.433594 C 40.554688 78.648438 37.410156 81.226562 34.476562 84.15625 C 34.441406 84.191406 34.402344 84.230469 34.402344 84.265625 C 34.511719 83.980469 34.617188 83.726562 34.726562 83.476562 L 34.796875 83.335938 C 35.332031 82.15625 35.871094 81.011719 36.515625 79.902344 C 40.089844 73.214844 44.953125 67.3125 50.785156 62.554688 C 51.105469 62.304688 51.464844 62.019531 51.820312 61.769531 C 52.070312 61.554688 52.320312 61.375 52.535156 61.195312 C 52.714844 61.054688 52.929688 60.910156 53.179688 60.730469 C 53.574219 60.445312 53.96875 60.160156 54.324219 59.910156 C 54.898438 59.515625 55.503906 59.121094 56.078125 58.730469 L 56.113281 58.730469 L 56.183594 58.691406 C 56.792969 58.300781 57.4375 57.90625 58.082031 57.550781 C 64.730469 53.652344 72.242188 51.109375 80.253906 50.253906 C 84.367188 55.367188 87.515625 61.160156 89.550781 67.277344 Z M 89.550781 67.277344 " fill-opacity="1" fill-rule="nonzero"/></g><g clip-path="url(#1199be96f4)"><path fill="#000000" d="M 97.097656 131.472656 C 97.171875 130.152344 97.207031 128.828125 97.207031 127.503906 C 97.207031 120.101562 95.882812 112.699219 93.199219 105.6875 L 93.199219 105.652344 L 93.164062 105.542969 C 92.808594 104.6875 92.484375 103.828125 92.128906 102.96875 C 91.949219 102.539062 91.734375 102.148438 91.554688 101.753906 C 91.414062 101.394531 91.234375 101.039062 91.054688 100.644531 L 91.054688 100.609375 L 90.949219 100.359375 C 90.875 100.214844 90.804688 100.035156 90.695312 99.894531 L 90.660156 99.785156 C 90.660156 99.785156 90.660156 99.785156 90.660156 99.75 C 90.660156 99.75 90.660156 99.714844 90.660156 99.714844 L 90.625 99.644531 L 90.589844 99.609375 L 90.554688 99.570312 L 90.519531 99.535156 C 90.410156 99.320312 90.304688 99.144531 90.195312 98.929688 L 90.195312 98.890625 C 90.054688 98.570312 89.875 98.285156 89.695312 97.960938 L 89.695312 97.890625 L 89.660156 97.820312 L 89.550781 97.675781 C 89.339844 97.320312 89.125 96.925781 88.910156 96.53125 L 88.910156 96.425781 C 88.621094 95.960938 88.335938 95.460938 88.015625 94.957031 L 88.015625 94.921875 C 87.730469 94.457031 87.40625 93.992188 87.121094 93.492188 L 87.050781 93.421875 C 86.90625 93.207031 86.726562 92.957031 86.546875 92.667969 L 86.441406 92.527344 L 86.441406 92.492188 L 86.40625 92.453125 L 86.371094 92.382812 L 86.332031 92.347656 L 86.332031 92.3125 L 86.191406 92.097656 L 86.191406 92.0625 C 85.941406 91.703125 85.691406 91.347656 85.402344 90.988281 L 85.367188 90.917969 C 85.152344 90.59375 84.902344 90.308594 84.652344 89.988281 C 84.511719 89.773438 84.367188 89.628906 84.296875 89.523438 C 84.082031 89.199219 83.832031 88.914062 83.578125 88.628906 L 83.472656 88.484375 C 83.1875 88.128906 82.902344 87.804688 82.578125 87.449219 C 81.578125 86.304688 80.539062 85.160156 79.429688 84.050781 C 79.394531 84.050781 79.394531 84.015625 79.359375 83.980469 C 79.644531 84.085938 79.96875 84.230469 80.253906 84.371094 C 91.089844 89.234375 100.140625 97.425781 106.074219 107.617188 L 106.113281 107.65625 C 109.972656 114.308594 112.511719 121.816406 113.40625 129.792969 C 107.972656 134.085938 102.175781 137.160156 96.097656 139.234375 C 96.132812 139.019531 96.167969 138.839844 96.203125 138.664062 C 96.277344 138.234375 96.347656 137.839844 96.457031 137.375 L 96.457031 137.304688 C 96.667969 136.015625 96.8125 134.726562 96.957031 133.441406 C 96.992188 133.082031 97.027344 132.726562 97.027344 132.367188 C 97.027344 132.117188 97.0625 131.796875 97.097656 131.472656 Z M 97.097656 131.472656 " fill-opacity="1" fill-rule="nonzero"/></g><path fill="#000000" d="M 79.324219 128.828125 C 79.253906 128.933594 79.21875 129.078125 79.179688 129.183594 C 79.074219 129.398438 79.003906 129.613281 78.929688 129.757812 C 74.066406 140.59375 65.875 149.640625 55.683594 155.578125 C 49.03125 159.476562 41.519531 162.015625 33.511719 162.910156 C 29.324219 157.652344 26.179688 151.859375 24.105469 145.78125 C 27.964844 146.53125 31.902344 146.925781 35.835938 146.925781 C 43.238281 146.925781 50.640625 145.601562 57.6875 142.953125 C 58.582031 142.597656 59.476562 142.238281 60.367188 141.84375 L 60.546875 141.773438 L 60.621094 141.773438 C 61.085938 141.558594 61.550781 141.34375 61.976562 141.164062 L 62.015625 141.128906 L 62.050781 141.128906 L 62.121094 141.09375 C 62.441406 140.953125 62.730469 140.808594 63.050781 140.664062 L 63.085938 140.664062 L 63.121094 140.628906 L 63.160156 140.628906 L 63.230469 140.59375 L 63.375 140.523438 L 63.480469 140.449219 C 63.695312 140.34375 63.875 140.234375 64.054688 140.128906 L 64.160156 140.09375 L 64.195312 140.058594 L 64.265625 140.019531 L 64.339844 139.984375 L 64.375 139.984375 C 64.589844 139.878906 64.804688 139.769531 65.019531 139.664062 C 65.125 139.628906 65.234375 139.554688 65.375 139.449219 L 65.410156 139.449219 L 65.484375 139.414062 C 65.839844 139.234375 66.164062 139.019531 66.519531 138.804688 L 66.664062 138.699219 C 66.699219 138.664062 66.878906 138.589844 67.019531 138.484375 C 67.308594 138.339844 67.558594 138.160156 67.808594 138.019531 L 67.988281 137.910156 L 68.023438 137.875 C 68.128906 137.804688 68.273438 137.734375 68.488281 137.589844 C 68.882812 137.339844 69.273438 137.089844 69.667969 136.800781 L 69.738281 136.730469 L 69.773438 136.730469 C 70.132812 136.480469 70.527344 136.230469 70.917969 135.945312 L 70.992188 135.945312 C 71.3125 135.730469 71.636719 135.480469 71.921875 135.265625 C 71.921875 135.265625 71.957031 135.265625 71.957031 135.230469 C 72.492188 134.835938 73.03125 134.441406 73.53125 134.011719 L 73.636719 133.941406 L 73.671875 133.90625 C 73.960938 133.691406 74.246094 133.476562 74.496094 133.261719 L 74.710938 133.046875 C 75.066406 132.761719 75.425781 132.476562 75.746094 132.1875 C 76.929688 131.1875 78.035156 130.152344 79.144531 129.042969 Z M 79.324219 128.828125 " fill-opacity="1" fill-rule="nonzero"/><g clip-path="url(#f45a912b2d)"><path fill="#000000" d="M 34.476562 128.96875 C 34.261719 128.863281 34.011719 128.792969 33.796875 128.683594 L 33.582031 128.578125 C 24.390625 124.429688 16.484375 117.917969 10.65625 109.800781 C 9.621094 108.335938 8.652344 106.867188 7.757812 105.328125 L 7.722656 105.257812 C 3.863281 98.605469 1.320312 91.132812 0.464844 83.121094 C 5.722656 78.9375 11.515625 75.789062 17.59375 73.75 C 16.84375 77.613281 16.449219 81.546875 16.449219 85.480469 C 16.449219 92.882812 17.773438 100.289062 20.457031 107.296875 C 22.066406 111.515625 24.140625 115.59375 26.714844 119.457031 C 28.933594 122.78125 31.507812 125.929688 34.441406 128.863281 C 34.441406 128.96875 34.441406 128.96875 34.476562 128.96875 Z M 34.476562 128.96875 " fill-opacity="1" fill-rule="nonzero"/></g><g clip-path="url(#a2aa9e9d54)"><path fill="#000000" d="M 52.214844 55.617188 C 42.773438 61.984375 35.226562 70.890625 30.503906 81.367188 C 28.644531 85.480469 27.25 89.84375 26.320312 94.421875 C 25.535156 98.320312 25.140625 102.324219 25.140625 106.4375 L 25.140625 106.652344 C 25.035156 106.332031 24.855469 106.046875 24.746094 105.722656 C 22.28125 99.25 21.0625 92.382812 21.0625 85.550781 C 21.0625 80.652344 21.671875 75.789062 22.960938 71.03125 C 24.925781 63.558594 28.429688 56.476562 33.511719 50.144531 C 40.125 50.859375 46.457031 52.757812 52.214844 55.617188 Z M 52.214844 55.617188 " fill-opacity="1" fill-rule="nonzero"/></g><g clip-path="url(#7bbebab23d)"><path fill="#000000" d="M 113.230469 83.15625 C 112.476562 89.84375 110.582031 96.136719 107.722656 101.898438 C 101.355469 92.453125 92.449219 84.910156 81.96875 80.1875 C 80.039062 79.328125 78 78.507812 75.960938 77.863281 C 75.640625 77.753906 75.355469 77.648438 75.03125 77.578125 C 74.710938 77.46875 74.386719 77.363281 74.03125 77.289062 L 73.960938 77.289062 L 73.851562 77.253906 C 73.316406 77.113281 72.816406 76.96875 72.3125 76.824219 C 71.8125 76.683594 71.242188 76.539062 70.667969 76.433594 L 70.597656 76.398438 C 70.0625 76.289062 69.488281 76.144531 68.953125 76.039062 L 68.882812 76.039062 C 68.628906 76.003906 68.34375 75.933594 67.988281 75.859375 L 67.808594 75.824219 L 67.558594 75.824219 C 67.449219 75.824219 67.34375 75.789062 67.308594 75.789062 L 67.234375 75.789062 C 66.84375 75.71875 66.414062 75.644531 65.949219 75.574219 L 65.875 75.574219 C 65.484375 75.503906 65.089844 75.464844 64.695312 75.394531 C 64.445312 75.359375 64.230469 75.324219 64.089844 75.324219 C 63.730469 75.253906 63.335938 75.214844 62.980469 75.214844 L 62.800781 75.214844 C 62.371094 75.179688 61.941406 75.109375 61.441406 75.109375 L 61.40625 75.109375 C 59.902344 75 58.332031 74.929688 56.792969 74.929688 L 56.683594 74.929688 C 57.007812 74.824219 57.292969 74.679688 57.578125 74.535156 C 64.050781 72.070312 70.917969 70.851562 77.785156 70.851562 C 82.648438 70.851562 87.550781 71.496094 92.304688 72.75 C 99.816406 74.574219 106.933594 78.113281 113.230469 83.15625 Z M 113.230469 83.15625 " fill-opacity="1" fill-rule="nonzero"/></g><path fill="#000000" d="M 92.59375 127.539062 C 92.59375 132.4375 91.984375 137.304688 90.695312 142.058594 C 88.730469 149.5 85.226562 156.617188 80.183594 162.910156 C 73.53125 162.160156 67.199219 160.265625 61.441406 157.4375 C 70.847656 151.074219 78.429688 142.167969 83.152344 131.6875 C 83.578125 130.757812 83.972656 129.792969 84.367188 128.828125 L 84.367188 128.792969 C 84.546875 128.289062 84.722656 127.824219 84.902344 127.359375 L 84.902344 127.324219 L 84.9375 127.253906 C 85.046875 126.894531 85.152344 126.609375 85.261719 126.289062 L 85.261719 126.214844 L 85.296875 126.109375 C 85.402344 125.789062 85.476562 125.535156 85.582031 125.25 L 85.65625 125.070312 L 85.65625 125 C 85.796875 124.605469 85.941406 124.179688 86.046875 123.710938 L 86.046875 123.640625 C 86.191406 123.140625 86.332031 122.640625 86.441406 122.175781 C 86.476562 122.101562 86.511719 121.960938 86.546875 121.746094 C 86.621094 121.425781 86.691406 121.136719 86.761719 120.851562 L 86.800781 120.671875 C 86.835938 120.566406 86.871094 120.386719 86.90625 120.136719 C 87.011719 119.671875 87.121094 119.207031 87.226562 118.742188 L 87.226562 118.597656 C 87.300781 118.167969 87.40625 117.667969 87.476562 117.167969 C 87.550781 116.773438 87.621094 116.34375 87.65625 115.988281 C 87.765625 115.308594 87.835938 114.664062 87.941406 114.019531 L 87.980469 113.878906 L 87.980469 113.84375 C 88.015625 113.484375 88.050781 113.164062 88.085938 112.804688 L 88.085938 112.554688 C 88.121094 112.089844 88.15625 111.625 88.195312 111.195312 C 88.300781 109.65625 88.371094 108.121094 88.371094 106.546875 L 88.371094 106.402344 C 88.480469 106.726562 88.621094 107.011719 88.765625 107.332031 C 91.339844 113.84375 92.59375 120.671875 92.59375 127.539062 Z M 92.59375 127.539062 " fill-opacity="1" fill-rule="nonzero"/><g clip-path="url(#5dca984f83)"><path fill="#000000" d="M 56.9375 138.199219 C 56.613281 138.304688 56.328125 138.449219 56.003906 138.589844 C 49.53125 141.058594 42.664062 142.273438 35.800781 142.273438 C 30.933594 142.273438 26.035156 141.628906 21.277344 140.378906 C 13.839844 138.410156 6.722656 134.871094 0.429688 129.828125 C 1.179688 123.140625 3.074219 116.847656 5.9375 111.089844 C 12.300781 120.53125 21.207031 128.074219 31.6875 132.796875 C 35.800781 134.65625 40.164062 136.085938 44.738281 136.980469 C 48.675781 137.769531 52.714844 138.199219 56.863281 138.199219 C 56.863281 138.234375 56.898438 138.199219 56.9375 138.199219 Z M 56.9375 138.199219 " fill-opacity="1" fill-rule="nonzero"/></g><g transform="matrix(1, 0, 0, 1, 37, 71)"><g clip-path="url(#d619d2bde9)"><g fill="#000000" fill-opacity="1"><g transform="translate(0.682083, 52.636369)"><g><path d="M 27.8125 -24.453125 C 27.007812 -25.921875 25.90625 -27.039062 24.5 -27.8125 C 23.101562 -28.582031 21.46875 -28.96875 19.59375 -28.96875 C 17.519531 -28.96875 15.679688 -28.5 14.078125 -27.5625 C 12.472656 -26.625 11.21875 -25.285156 10.3125 -23.546875 C 9.414062 -21.816406 8.96875 -19.8125 8.96875 -17.53125 C 8.96875 -15.195312 9.425781 -13.160156 10.34375 -11.421875 C 11.257812 -9.679688 12.535156 -8.34375 14.171875 -7.40625 C 15.816406 -6.476562 17.722656 -6.015625 19.890625 -6.015625 C 22.566406 -6.015625 24.753906 -6.722656 26.453125 -8.140625 C 28.160156 -9.554688 29.28125 -11.535156 29.8125 -14.078125 L 17.78125 -14.078125 L 17.78125 -19.4375 L 36.734375 -19.4375 L 36.734375 -13.328125 C 36.265625 -10.890625 35.257812 -8.632812 33.71875 -6.5625 C 32.1875 -4.488281 30.207031 -2.828125 27.78125 -1.578125 C 25.363281 -0.328125 22.648438 0.296875 19.640625 0.296875 C 16.265625 0.296875 13.210938 -0.460938 10.484375 -1.984375 C 7.765625 -3.503906 5.628906 -5.613281 4.078125 -8.3125 C 2.523438 -11.019531 1.75 -14.09375 1.75 -17.53125 C 1.75 -20.976562 2.523438 -24.0625 4.078125 -26.78125 C 5.628906 -29.507812 7.765625 -31.628906 10.484375 -33.140625 C 13.210938 -34.660156 16.25 -35.421875 19.59375 -35.421875 C 23.53125 -35.421875 26.953125 -34.460938 29.859375 -32.546875 C 32.765625 -30.628906 34.769531 -27.929688 35.875 -24.453125 Z M 27.8125 -24.453125 "/></g></g></g></g></g><g transform="matrix(1, 0, 0, 1, 426, 0.000000000000040532)"><g clip-path="url(#0ed192ede6)"><g fill="#000000" fill-opacity="1"><g transform="translate(25.086686, 105.197072)"><g><path d="M 27.75 -45.046875 L 8.1875 -13.015625 L -0.984375 -18.640625 L 18.515625 -50.703125 L 17.96875 -51.53125 L 2.9375 -47.890625 L 0.46875 -58.0625 L 33.109375 -65.984375 L 34.625 -65.015625 L 42.546875 -32.40625 L 32.375 -29.9375 L 28.734375 -44.9375 Z M 27.75 -45.046875 "/></g></g></g></g></g><g clip-path="url(#f198918e03)"><g transform="matrix(1, 0, 0, 1, 477, 0.000000000000040532)"><g clip-path="url(#6d9782ab4c)"><g fill="#000000" fill-opacity="1"><g transform="translate(24.974782, 112.549328)"><g><path d="M 27.75 -45.046875 L 8.1875 -13.015625 L -0.984375 -18.640625 L 18.515625 -50.703125 L 17.96875 -51.53125 L 2.9375 -47.890625 L 0.46875 -58.0625 L 33.109375 -65.984375 L 34.625 -65.015625 L 42.546875 -32.40625 L 32.375 -29.9375 L 28.734375 -44.9375 Z M 27.75 -45.046875 "/></g></g></g></g></g></g></g></g></g></svg>